PathFileType	4	(X/Y/Z)	2_coords_data.trc
DataRate	CameraRate	NumFrames	NumMarkers	Units	OrigDataRate	OrigDataStartFrame	OrigNumFrames
30.0	30.0	5	21	m	30.0	56	65
Frame#	Time	THUMB_TIP	THUMB_IP	THUMB_MCP	THUMB_CMC	INDEX_TIP	INDEX_DIP	INDEX_PIP	INDEX_MCP	MIDDLE_TIP	MIDDLE_DIP	MIDDLE_PIP	MIDDLE_MCP	RING_TIP	RING_DIP	RING_PIP	RING_MCP	PINKY_TIP	PINKY_DIP	PINKY_PIP	PINKY_MCP	WRIST
X1	Y1	Z1	X2	Y2	Z2	X3	Y3	Z3	X4	Y4	Z4	X5	Y5	Z5	X6	Y6	Z6	X7	Y7	Z7	X8	Y8	Z8	X9	Y9	Z9	X10	Y10	Z10	X11	Y11	Z11	X12	Y12	Z12	X13	Y13	Z13	X14	Y14	Z14	X15	Y15	Z15	X16	Y16	Z16	X17	Y17	Z17	X18	Y18	Z18	X19	Y19	Z19	X20	Y20	Z20	X21	Y21	Z21
54	1.8333333333333253	0.5140178642471147	-0.007862128079030084	-0.16326395170166652	0.5045111846632284	-0.014009564624132054	-0.14326815046207458	0.4888990490514482	-0.024179614881719713	-0.11833521442562833	0.47835058851967766	-0.028051211831874423	-0.07516542501839074	0.5757493378004839	0.017770395177467035	-0.15860087577984783	0.5591413955132348	0.01778734862689957	-0.15137758251680256	0.5362724854887044	0.01929837753638841	-0.14104609768040932	0.5007829020519377	0.012223973779023067	-0.11859440792300935	0.5901004707698009	0.023742066306331022	-0.13791788349717748	0.5731468282066041	0.027076411281261814	-0.13249053170947128	0.546399923300983	0.032562996854726634	-0.12229690592103348	0.5083796098592348	0.023331665991681128	-0.10072409392796655	0.5920325132473542	0.02721660579601448	-0.11602255020087526	0.5755204741296858	0.031002555755351824	-0.1098565833600641	0.5526229184695197	0.0352874473326642	-0.10105194662932526	0.5174488345007588	0.025681048811923568	-0.08358134966129704	0.5896756101262364	0.03350112399428318	-0.09185867369075107	0.5741644737340722	0.03062055217279991	-0.08521736705689065	0.5546601051555129	0.027398856346098732	-0.0781454294615832	0.5220548394126541	0.01813018560703661	-0.06582180014354477	0.4622830810018609	-0.023011742144276925	-0.051989820119430985
55	1.8666666666666587	0.5150807188898636	-0.00826417994483597	-0.16284634861570219	0.5053372498913138	-0.014325427448323103	-0.14293840822560228	0.4894447068816027	-0.024370913807034267	-0.11813245570405151	0.4785057169759979	-0.028096727224674933	-0.07504711232347705	0.5766515458058565	0.017491557656968748	-0.15780021521718418	0.5599976851324211	0.017511718145853727	-0.15068343798134975	0.537051370770184	0.01905378061972851	-0.14052969317876307	0.501386725212988	0.012046268914940761	-0.11833591182030934	0.5908711966752558	0.023881163064829458	-0.13709823316110725	0.5738686930653367	0.02710521025145385	-0.13175778460943005	0.5470356858839949	0.03247752845718199	-0.1217309469872051	0.5088956414865046	0.023134993359282152	-0.100418932246642	0.5926667898360607	0.02722975495623481	-0.11511169986162695	0.5760886397933838	0.03093491075754884	-0.10907541278673683	0.5531131615765368	0.035115211696849835	-0.10042483686578985	0.5178063657724014	0.025502670096391622	-0.08322745194759518	0.5901023552894962	0.03319560865502014	-0.09099940278283336	0.5745434194512391	0.030340627082437344	-0.084459632465673	0.5549832748443184	0.027147533407591906	-0.07753020862670845	0.5222657537929164	0.017943409503206276	-0.06545828374275608	0.4622830810018609	-0.023011742144276925	-0.051989820119430985
57	1.9000000000000012	0.5161153776826373	-0.00874302506600333	-0.16244232064585334	0.5061314163786454	-0.014695035285249292	-0.14262076442464855	0.48995005703934624	-0.02458098169955114	-0.11793774043191152	0.4786471090108291	-0.02815642678097252	-0.07493367599220557	0.5775535657876397	0.01693380707219405	-0.15698758868905505	0.5608478158503547	0.017032069944321715	-0.14999414437020453	0.5378221366259743	0.018695975689520306	-0.14004128815065442	0.5019740225807143	0.01183177706439198	-0.11809973873788931	0.5916459912169206	0.023611772344455106	-0.13622688327829008	0.5746055385051053	0.02684893802623811	-0.13101691881343297	0.5477023472240787	0.03222982259766949	-0.12118462863639762	0.5094123086677781	0.022907426515086926	-0.10013436023819267	0.5933043624339971	0.026949134320564005	-0.11419993731866723	0.5766739232729058	0.030670642436937068	-0.10831955717372643	0.5536350051497851	0.034813926831535946	-0.09982123821397793	0.5181732206506858	0.02529550158326077	-0.08289249771350249	0.5905631516284473	0.03276160759673463	-0.09012836968549942	0.5749470162275163	0.0299607294827664	-0.0837025314576505	0.5553249389684306	0.026829981661607438	-0.07692134268880069	0.5224770330449618	0.017743687251830842	-0.06511720013875433	0.4622830810018609	-0.023011742144276925	-0.051989820119430985
58	1.9333333333333345	0.5171962184122362	-0.009326331317482728	-0.16201804929419628	0.5069557443444324	-0.015142872429464549	-0.1422873488413674	0.49046741791179943	-0.024836991833112165	-0.11773171526292425	0.4787949547347995	-0.028227231338765812	-0.07481144173774879	0.5784494511416187	0.016277539055864487	-0.15618986078206332	0.5616932280572724	0.016472820140631783	-0.14932030088018083	0.5385929932137715	0.01827738312941929	-0.13956670997248938	0.5025623311926355	0.011587984038741617	-0.11787156240156205	0.5924311893221903	0.023145637935792385	-0.13533780705467008	0.575358356465413	0.026439523739756554	-0.13027137886954926	0.5483931336280337	0.03187564832278411	-0.12064148495277754	0.5099314738965348	0.022658269313727497	-0.09985955588202444	0.5939464058065638	0.026510049611049302	-0.11327021713750962	0.5772703050915673	0.030292108525783235	-0.10756025257467927	0.5541754012087908	0.03444775412280732	-0.09922142751851837	0.518546868550201	0.025067913345962478	-0.08256768674964488	0.5910293696492108	0.03227839772693819	-0.0892541921023503	0.5753535366001453	0.029541248204780324	-0.08294734893709121	0.5556677520853947	0.026488402186414683	-0.07631696145015254	0.5226885508351578	0.01753805400175268	-0.06477802721558423	0.4622830810018609	-0.023011742144276925	-0.051989820119430985
59	1.966666666666668	0.5183239483709683	-0.0100001830936024	-0.16156638016387426	0.5078110193891978	-0.01565791831379526	-0.1419330320947741	0.49099783264448627	-0.025133343298203048	-0.11751269072016746	0.47895052018753664	-0.028307269836304938	-0.07467954405902011	0.579328381317068	0.015565112796957936	-0.15541791459819843	0.5625246725038978	0.015863164708777355	-0.14866909728106442	0.5393565538675791	0.017809840578689395	-0.13910570013826196	0.5031455589289988	0.011323238230583121	-0.11765053923148566	0.5932184185114491	0.022504297888783942	-0.1344385070048711	0.5761190068911975	0.02589076832262993	-0.12952506216017262	0.5491001959293693	0.03141904947330809	-0.12010001511901408	0.5104448421681367	0.02239709211979113	-0.09959353243413416	0.5945836050516526	0.025915695957473228	-0.11232400128365727	0.5778698633859691	0.029800305463297372	-0.106795832642954	0.5547270955725663	0.03402464648597703	-0.09862593546740539	0.5189218513447893	0.02482672730924862	-0.0822520659611583	0.5914912740340067	0.03175317469283312	-0.08838783991661459	0.5757543694083711	0.029089022013145116	-0.08220300982170015	0.5560040394391503	0.02613057396006857	-0.07572349824873836	0.5228964778598506	0.017333327911143726	-0.06443716672660216	0.4622830810018609	-0.023011742144276925	-0.051989820119430985
